# xmcd
#
# Track frame offsets: 
#        150
#        28145
#        49967
#        70492
#        99680
#        117610
#        129930
#        147547
#        158715
#        212017
#
# Disc length: 3066 seconds
#
# Revision: 1
# Processed by: cddbd v1.5.2PL0 Copyright (c) Steve Scherf et al.
# Submitted via: ExactAudioCopy v0.90b4
#
DISCID=9b0bf80a
DTITLE=Marshall Tucker Band - M.T. Blues
DYEAR=1997
DGENRE=
TTITLE0=Ramblin' (Live Version)
TTITLE1=Try One More Time
TTITLE2=Where A Country Boy Belongs
TTITLE3=Asking Too Much Of You
TTITLE4=You Don't Live Forever
TTITLE5=Bob Away My Blues
TTITLE6=Too Stubborn
TTITLE7=Walkin' and Talkin'
TTITLE8=Every Day (I Have The Blues)
TTITLE9=I Like Good Music
EXTD=
EXTT0=
EXTT1=
EXTT2=
EXTT3=
EXTT4=
EXTT5=
EXTT6=
EXTT7=
EXTT8=
EXTT9=
PLAYORDER=
